<?xml version="1.0" standalone="no"?>
<!DOCTYPE svg PUBLIC "-//W3C//DTD SVG 20010904//EN"
 "http://www.w3.org/TR/2001/REC-SVG-20010904/DTD/svg10.dtd">
<svg version="1.0" xmlns="http://www.w3.org/2000/svg"
 width="1095.000000pt" height="1280.000000pt" viewBox="0 0 1095.000000 1280.000000"
 preserveAspectRatio="xMidYMid meet">
<metadata>
Created by potrace 1.15, written by Peter Selinger 2001-2017
</metadata>
<g transform="translate(0.000000,1280.000000) scale(0.100000,-0.100000)"
fill="#000000" stroke="none">
<path d="M7280 12785 c-60 -17 -120 -50 -171 -92 -44 -38 -104 -132 -118 -188
-6 -25 -15 -45 -19 -45 -5 0 -57 6 -118 14 -451 59 -978 44 -1394 -40 -868
-173 -1579 -644 -2056 -1359 -150 -225 -283 -513 -318 -686 -5 -23 -12 -28
-53 -34 -68 -10 -165 -49 -228 -91 -95 -63 -156 -147 -196 -269 -31 -93 -33
-293 -5 -402 32 -129 112 -227 204 -253 53 -14 169 -12 225 5 37 11 49 11 51
2 2 -7 18 -72 35 -145 81 -339 222 -659 431 -972 114 -170 239 -319 420 -500
239 -240 489 -440 762 -611 48 -30 87 -56 87 -59 1 -3 -24 -16 -54 -29 -87
-37 -318 -166 -427 -238 -189 -124 -325 -248 -423 -387 -27 -38 -93 -156 -146
-263 -113 -223 -111 -216 -244 -868 -124 -607 -200 -883 -295 -1078 -39 -81
-53 -98 -159 -195 -241 -223 -323 -312 -369 -400 -44 -84 -72 -192 -72 -277 0
-63 27 -209 54 -289 l24 -70 -82 -88 c-155 -164 -277 -356 -501 -788 -131
-253 -260 -476 -359 -620 -103 -150 -288 -313 -521 -459 -148 -93 -510 -267
-760 -366 -289 -113 -380 -153 -434 -190 -54 -36 -60 -49 -29 -67 27 -15 289
-18 518 -4 176 10 289 -6 420 -61 78 -33 95 -37 205 -40 116 -5 148 -2 374 32
110 16 252 11 516 -19 161 -18 746 -6 830 18 145 41 290 138 383 257 52 67 55
74 117 314 118 453 155 691 156 1015 0 240 -25 401 -91 572 -30 77 -70 226
-70 261 0 9 7 17 15 17 8 0 57 22 110 49 52 27 95 45 95 41 0 -4 -7 -27 -15
-50 -23 -65 -20 -255 4 -339 47 -157 63 -270 59 -408 -4 -151 -11 -144 87 -96
239 118 375 392 375 758 0 128 -15 242 -40 300 -22 50 -86 125 -107 125 -23 0
-14 12 77 107 104 108 221 253 285 351 85 132 174 343 222 522 6 23 7 -67 5
-253 -6 -416 20 -777 79 -1090 19 -104 20 -124 10 -440 -12 -358 -26 -492 -66
-645 -46 -175 -148 -351 -262 -452 -26 -23 -112 -85 -190 -136 -157 -103 -252
-190 -298 -274 -27 -49 -30 -64 -30 -140 0 -117 29 -176 144 -290 140 -139
199 -172 411 -229 309 -85 593 -87 826 -7 213 73 419 217 579 406 306 360 462
700 525 1143 15 109 54 538 61 674 2 44 22 -69 74 -427 93 -640 130 -813 235
-1125 72 -211 109 -282 197 -376 216 -228 554 -360 1113 -434 228 -30 553 15
791 111 l86 34 48 -21 c136 -60 338 -90 480 -71 110 14 135 27 163 82 32 65
29 102 -14 149 -37 42 -81 61 -191 82 -61 11 -63 12 -57 38 13 53 57 181 63
181 3 0 20 -22 38 -49 50 -76 199 -246 241 -273 48 -32 96 -48 142 -48 120 0
431 155 478 239 41 72 22 151 -46 193 -46 28 -103 19 -204 -33 -59 -30 -87
-39 -107 -34 -50 11 -118 102 -135 180 -6 29 -4 31 62 62 137 64 237 171 320
342 l46 93 24 -28 c61 -74 184 -189 247 -233 81 -56 143 -89 249 -131 74 -29
77 -29 116 -14 78 31 150 144 150 233 -1 50 -33 116 -67 137 -195 121 -335
247 -431 387 -29 42 -95 162 -147 265 -51 103 -104 204 -118 224 -21 30 -67
122 -67 134 0 1 33 18 73 38 239 115 375 370 324 610 l-14 68 30 32 c40 43 77
123 77 169 0 97 -89 198 -195 221 -41 9 -108 -16 -159 -58 l-41 -33 -45 19
c-94 40 -182 58 -287 58 l-102 0 16 43 c24 65 29 265 9 365 -22 110 -41 165
-145 431 -50 127 -91 232 -91 235 0 2 9 6 19 9 18 4 15 15 -34 144 -29 77
-123 358 -210 624 -173 534 -250 739 -360 964 -160 325 -366 583 -573 715 -39
25 -71 47 -71 50 0 3 44 28 100 57 227 119 448 265 634 422 202 169 450 443
579 638 29 44 46 61 56 57 113 -45 127 -49 230 -49 91 0 111 3 148 23 156 83
257 295 256 537 -1 114 -23 193 -78 279 -38 60 -132 149 -187 177 l-39 19 0
99 c0 192 -42 517 -95 741 -265 1103 -971 1896 -2037 2284 l-48 18 0 73 c0
193 -127 377 -307 445 -76 29 -199 35 -273 15z m243 -168 c109 -50 174 -138
184 -249 5 -55 7 -58 40 -69 19 -6 32 -13 30 -15 -3 -3 -46 8 -96 23 -71 21
-91 32 -91 46 0 55 -57 135 -122 168 -41 21 -117 25 -151 8 -33 -17 -78 -61
-88 -87 -8 -20 -13 -22 -51 -16 -24 4 -45 8 -46 10 -10 8 28 82 60 119 82 93
211 117 331 62z m837 -8712 c116 -284 182 -393 259 -425 37 -15 57 -67 116
-303 61 -246 103 -331 180 -358 42 -15 45 -27 45 -163 0 -115 21 -284 46 -376
9 -30 31 -89 51 -131 l34 -75 -35 -60 c-49 -81 -109 -232 -135 -335 -30 -120
-42 -226 -40 -369 1 -118 -15 -256 -30 -273 -4 -4 -45 13 -92 39 -214 118
-341 240 -414 399 -68 145 -72 216 -44 775 41 824 32 1427 -27 1825 -4 22 -4
38 -1 35 3 -3 42 -95 87 -205z"/>
</g>
</svg>
